<?xml version="1.0" encoding="UTF-8"?>
<svg width="30px" height="30px" viewBox="0 0 30 30" version="1.1" xmlns="http://www.w3.org/2000/svg" xmlns:xlink="http://www.w3.org/1999/xlink">
    <!-- Generator: sketchtool 52.6 (67491) - http://www.bohemiancoding.com/sketch -->
    <title>374979AB-8E97-4B8C-814E-B6EDDCF02649</title>
    <desc>Created with sketchtool.</desc>
    <defs>
        <polygon id="path-1" points="0 0.0688554217 29.9309855 0.0688554217 29.9309855 29.9276747 0 29.9276747"></polygon>
    </defs>
    <g id="Page-1" stroke="none" stroke-width="1" fill="none" fill-rule="evenodd">
        <g id="Template-5" transform="translate(-1198.000000, -388.000000)">
            <g id="Group-8-Copy" transform="translate(1198.000000, 388.000000)">
                <g id="Group-3" transform="translate(0.000000, 0.003470)">
                    <mask id="mask-2" fill="white">
                        <use xlink:href="#path-1"></use>
                    </mask>
                    <g id="Clip-2"></g>
                    <path d="M27.124971,20.5968072 C27.124971,24.1985422 24.1880145,27.1284217 20.5775797,27.1284217 L9.35344928,27.1284217 C5.74301449,27.1284217 2.80605797,24.1985422 2.80605797,20.5968072 L2.80605797,9.39972289 C2.80605797,5.79798795 5.74301449,2.86810843 9.35344928,2.86810843 L20.5775797,2.86810843 C24.1880145,2.86810843 27.124971,5.79798795 27.124971,9.39972289 L27.124971,20.5968072 Z M20.5775797,0.0688554217 L9.35344928,0.0688554217 C4.18844928,0.0688554217 -2.89855072e-05,4.24724096 -2.89855072e-05,9.39972289 L-2.89855072e-05,20.5968072 C-2.89855072e-05,25.7493614 4.18844928,29.9276747 9.35344928,29.9276747 L20.5775797,29.9276747 C25.7425072,29.9276747 29.9309855,25.7493614 29.9309855,20.5968072 L29.9309855,9.39972289 C29.9309855,4.24724096 25.7425072,0.0688554217 20.5775797,0.0688554217 Z" id="Fill-1" fill="#FFFFFF" mask="url(#mask-2)"></path>
                </g>
                <path d="M14.9655,19.6671904 C12.3876739,19.6671904 10.2887609,17.5733349 10.2887609,15.0017205 C10.2887609,12.4282988 12.3876739,10.3363229 14.9655,10.3363229 C17.5433261,10.3363229 19.6422391,12.4282988 19.6422391,15.0017205 C19.6422391,17.5733349 17.5433261,19.6671904 14.9655,19.6671904 M14.9655,7.53699759 C10.8331812,7.53699759 7.48274638,10.879359 7.48274638,15.0017205 C7.48274638,19.1241542 10.8331812,22.4664434 14.9655,22.4664434 C19.0978188,22.4664434 22.4482536,19.1241542 22.4482536,15.0017205 C22.4482536,10.879359 19.0978188,7.53699759 14.9655,7.53699759" id="Fill-4" fill="#FFFFFF"></path>
                <path d="M23.0094565,5.98249157 C23.5601087,5.98249157 24.006558,6.42779277 24.006558,6.97719036 C24.006558,7.52651566 23.5601087,7.97181687 23.0094565,7.97181687 C22.4588043,7.97181687 22.0123551,7.52651566 22.0123551,6.97719036 C22.0123551,6.42779277 22.4588043,5.98249157 23.0094565,5.98249157" id="Fill-6" fill="#FFFFFF"></path>
            </g>
        </g>
    </g>
</svg>