<?xml version="1.0" encoding="UTF-8"?>
<svg width="30px" height="27px" viewBox="0 0 30 27" version="1.1" xmlns="http://www.w3.org/2000/svg" xmlns:xlink="http://www.w3.org/1999/xlink">
    <!-- Generator: sketchtool 52.6 (67491) - http://www.bohemiancoding.com/sketch -->
    <title>9AFBCC14-8EB2-4480-B4C3-19A086660887</title>
    <desc>Created with sketchtool.</desc>
    <defs>
        <polygon id="path-1" points="0 0.0150882353 5.83545067 0.0150882353 5.83545067 18.6617647 0 18.6617647"></polygon>
        <polygon id="path-3" points="0 0.0329955882 5.83545067 0.0329955882 5.83545067 5.34524559 0 5.34524559"></polygon>
        <polygon id="path-5" points="0.0102780269 0.0541389706 20.1126323 0.0541389706 20.1126323 19.1911765 0.0102780269 19.1911765"></polygon>
    </defs>
    <g id="Page-1" stroke="none" stroke-width="1" fill="none" fill-rule="evenodd">
        <g id="Template-5" transform="translate(-1198.000000, -183.000000)">
            <g id="Group-10-Copy" transform="translate(1198.000000, 183.000000)">
                <g id="Group-3" transform="translate(0.000000, 8.305279)">
                    <mask id="mask-2" fill="white">
                        <use xlink:href="#path-1"></use>
                    </mask>
                    <g id="Clip-2"></g>
                    <path d="M0.972020179,18.6617647 L4.86341031,18.6617647 C5.40024888,18.6617647 5.83545067,18.2336029 5.83545067,17.7054485 L5.83545067,0.971404412 C5.83545067,0.443183824 5.40024888,0.0150882353 4.86341031,0.0150882353 L0.972020179,0.0150882353 C0.43511435,0.0150882353 -2.01793722e-05,0.443183824 -2.01793722e-05,0.971404412 L-2.01793722e-05,17.7054485 C-2.01793722e-05,18.2335368 0.43511435,18.6617647 0.972020179,18.6617647" id="Fill-1" fill="#FFFFFF" mask="url(#mask-2)"></path>
                </g>
                <g id="Group-6" transform="translate(0.000000, 0.033221)">
                    <mask id="mask-4" fill="white">
                        <use xlink:href="#path-3"></use>
                    </mask>
                    <g id="Clip-5"></g>
                    <path d="M0.972020179,5.34524559 L4.86341031,5.34524559 C5.40024888,5.34524559 5.83545067,4.91715 5.83545067,4.38892941 L5.83545067,0.989311765 C5.83545067,0.461091176 5.40024888,0.0329955882 4.86341031,0.0329955882 L0.972020179,0.0329955882 C0.43511435,0.0329955882 -2.01793722e-05,0.461091176 -2.01793722e-05,0.989311765 L-2.01793722e-05,4.38892941 C-2.01793722e-05,4.91715 0.43511435,5.34524559 0.972020179,5.34524559" id="Fill-4" fill="#FFFFFF" mask="url(#mask-4)"></path>
                </g>
                <g id="Group-9" transform="translate(9.820628, 7.775868)">
                    <mask id="mask-6" fill="white">
                        <use xlink:href="#path-5"></use>
                    </mask>
                    <g id="Clip-8"></g>
                    <path d="M18.6485516,2.4854625 C18.1017578,1.77730809 17.2953901,1.19495515 16.2292466,0.738536029 C15.1631704,0.282381618 13.9863094,0.0541389706 12.6987309,0.0541389706 C10.0849641,0.0541389706 7.87021076,1.03553603 6.05440359,2.99866103 C5.69312556,3.38930074 5.4304574,3.30386691 5.4304574,2.77564632 L5.4304574,1.50082279 C5.4304574,0.972602206 4.99525561,0.544506618 4.45834978,0.544506618 L0.982251121,0.544506618 C0.445345291,0.544506618 0.0102780269,0.972602206 0.0102780269,1.50082279 L0.0102780269,18.2348007 C0.0102780269,18.7630213 0.445412556,19.1911831 0.982251121,19.1911831 L4.87364126,19.1911831 C5.41054709,19.1911831 5.84568161,18.7630213 5.84568161,18.2348007 L5.84568161,12.4151757 C5.84568161,9.99073456 5.99447085,8.32891103 6.29211659,7.42996985 C6.5896278,6.53102868 7.14012108,5.80924191 7.9430583,5.26434485 C8.74613004,4.71951397 9.6528565,4.44693309 10.6636413,4.44693309 C11.452722,4.44693309 12.127722,4.63771985 12.6885067,5.01916103 C13.2492915,5.40066838 13.6542915,5.93497721 13.9035067,6.62301397 C14.1527892,7.31091838 14.2773632,8.82616103 14.2773632,11.1690066 L14.2773632,18.2348007 C14.2773632,18.7629551 14.7124305,19.1911169 15.2492691,19.1911169 L19.1406592,19.1911169 C19.677565,19.1911169 20.1126323,18.7629551 20.1126323,18.2348007 L20.1126323,8.75799926 C20.1126323,7.08274191 20.0053453,5.79554338 19.7909058,4.89660221 C19.5765336,3.99766103 19.1956816,3.19394779 18.6485516,2.4854625" id="Fill-7" fill="#FFFFFF" mask="url(#mask-6)"></path>
                </g>
            </g>
        </g>
    </g>
</svg>