<?xml version="1.0" encoding="UTF-8"?>
<svg width="30px" height="30px" viewBox="0 0 30 30" version="1.1" xmlns="http://www.w3.org/2000/svg" xmlns:xlink="http://www.w3.org/1999/xlink">
    <!-- Generator: sketchtool 52.6 (67491) - http://www.bohemiancoding.com/sketch -->
    <title>C2BBB6D3-5733-4F9F-A78B-229DE8238E07</title>
    <desc>Created with sketchtool.</desc>
    <defs>
        <polygon id="path-1" points="2.90556901e-05 2.89156627e-05 29.9405085 2.89156627e-05 29.9405085 29.939494 2.90556901e-05 29.939494"></polygon>
    </defs>
    <g id="Page-1" stroke="none" stroke-width="1" fill="none" fill-rule="evenodd">
        <g id="Template-5" transform="translate(-1198.000000, -234.000000)">
            <g id="Group-3-Copy" transform="translate(1198.000000, 234.000000)">
                <mask id="mask-2" fill="white">
                    <use xlink:href="#path-1"></use>
                </mask>
                <g id="Clip-2"></g>
                <path d="M21.8294237,17.9414024 C21.4570751,17.7557639 19.6256223,16.8592337 19.2840726,16.7353301 C18.9428862,16.6116434 18.6943148,16.550053 18.4461792,16.9209687 C18.197753,17.2919566 17.484,18.127041 17.2665908,18.3742699 C17.0491816,18.6217157 16.8322082,18.6528 16.4596416,18.4671614 C16.0870751,18.2816675 14.8869298,17.8900771 13.464,16.6271855 C12.3567603,15.6441976 11.60923,14.4303181 11.3918208,14.0593301 C11.1748475,13.688053 11.3900048,13.5067518 11.5552591,13.3028241 C11.9584794,12.8045349 12.3622809,12.2820289 12.4864213,12.0348 C12.610707,11.7874265 12.5484552,11.5708482 12.4551864,11.3853542 C12.3622809,11.1999325 11.6173656,9.37528193 11.3070508,8.6328 C11.0044358,7.91026988 10.6976077,8.00786024 10.4687942,7.99651084 C10.2517482,7.98573976 10.003322,7.98357108 9.75489588,7.98357108 C9.50661501,7.98357108 9.10303148,8.07617349 8.76148184,8.44752289 C8.42015012,8.81865542 7.45797094,9.71533012 7.45797094,11.5399807 C7.45797094,13.364559 8.79271671,15.1272578 8.97889104,15.3747036 C9.16506538,15.6221494 11.6055981,19.3663663 15.3420872,20.9719084 C16.2308281,21.3541735 16.9245327,21.5820289 17.4656949,21.7529205 C18.3580678,22.0350651 19.1698838,21.9952337 19.8117966,21.899812 C20.5275835,21.7933301 22.0154528,21.0029928 22.3261308,20.1371855 C22.6364455,19.2711614 22.6364455,18.5291133 22.5431768,18.3742699 C22.4502712,18.2197157 22.2017724,18.127041 21.8294237,17.9414024 M15.032862,27.1767036 L15.0277046,27.1767036 C12.8044358,27.1757639 10.6239516,26.5811855 8.72123971,25.4578843 L8.26898789,25.190559 L3.57932688,26.4148482 L4.831046,21.8645349 L4.53634867,21.398053 C3.2960339,19.4347518 2.641046,17.1655229 2.64213559,14.8356434 C2.64467797,8.03692048 8.20324939,2.50564337 15.0378015,2.50564337 C18.3473898,2.5068 21.4585278,3.79101687 23.7978741,6.12183614 C26.1371477,8.45265542 27.4247506,11.5507518 27.4235884,14.8456916 C27.4206828,21.6449205 21.8624746,27.1767036 15.032862,27.1767036 M25.5782615,4.35096867 C22.7637094,1.54665542 19.0205375,0.00161927711 15.032862,2.89156627e-05 C6.81584019,2.89156627e-05 0.128382567,6.65504096 0.125041162,14.8347036 C0.123951574,17.4494747 0.810319613,20.0019325 2.1149201,22.251788 L2.90556901e-05,29.9395229 L7.9028862,27.8763904 C10.0804649,29.0585349 12.5319661,29.6814506 15.0268329,29.6821735 L15.0330799,29.6821735 C23.2491574,29.6821735 29.937414,23.0265831 29.9405375,14.846559 C29.9421356,10.882294 28.3929588,7.15506506 25.5782615,4.35096867" id="Fill-1" fill="#FFFFFF" mask="url(#mask-2)"></path>
            </g>
        </g>
    </g>
</svg>