<?xml version="1.0" encoding="UTF-8"?>
<svg width="30px" height="29px" viewBox="0 0 30 29" version="1.1" xmlns="http://www.w3.org/2000/svg" xmlns:xlink="http://www.w3.org/1999/xlink">
    <!-- Generator: sketchtool 52.6 (67491) - http://www.bohemiancoding.com/sketch -->
    <title>93955A66-C6F3-45FD-BF19-52AC5AF42691</title>
    <desc>Created with sketchtool.</desc>
    <g id="Page-1" stroke="none" stroke-width="1" fill="none" fill-rule="evenodd">
        <g id="Template-5" transform="translate(-1198.000000, -288.000000)" fill="#FFFFFF">
            <path d="M1213,288 C1204.71248,288 1198,294.657297 1198,302.867986 C1198,309.438293 1202.29752,315.009935 1208.25624,316.974336 C1209.00624,317.114334 1209.28125,316.654108 1209.28125,316.259459 C1209.28125,315.906444 1209.26872,314.970898 1209.26253,313.731484 C1205.09002,314.627923 1204.21,311.736822 1204.21,311.736822 C1203.52752,310.020753 1202.54128,309.561792 1202.54128,309.561792 C1201.18251,308.640147 1202.64624,308.659034 1202.64624,308.659034 C1204.15251,308.762453 1204.94378,310.191012 1204.94378,310.191012 C1206.28125,312.464337 1208.45497,311.807383 1209.31251,311.427899 C1209.44747,310.465884 1209.83378,309.811458 1210.26248,309.439556 C1206.93123,309.067585 1203.43,307.789064 1203.43,302.092518 C1203.43,300.469829 1204.01128,299.143424 1204.97378,298.103195 C1204.80499,297.727503 1204.29875,296.215744 1205.10499,294.168075 C1205.10499,294.168075 1206.36123,293.769634 1209.23002,295.69247 C1210.43002,295.362133 1211.70499,295.198193 1212.98002,295.190611 C1214.25499,295.198193 1215.53002,295.362133 1216.73002,295.69247 C1219.58002,293.769634 1220.83626,294.168075 1220.83626,294.168075 C1221.64251,296.215744 1221.13626,297.727503 1220.98626,298.103195 C1221.94251,299.143424 1222.52378,300.469829 1222.52378,302.092518 C1222.52378,307.804229 1219.01747,309.061266 1215.68002,309.426919 C1216.20499,309.873243 1216.69251,310.784847 1216.69251,312.178091 C1216.69251,314.167697 1216.67378,315.766446 1216.67378,316.249349 C1216.67378,316.639013 1216.93626,317.104224 1217.70499,316.955449 C1223.70624,315.003686 1228,309.428182 1228,302.867986 C1228,294.657297 1221.28376,288 1213,288" id="Fill-1-Copy"></path>
        </g>
    </g>
</svg>